<mxfile host="app.diagrams.net" modified="2020-12-01T16:39:26.003Z" agent="5.0 (X11; Linux x86_64) AppleWebKit/537.36 (KHTML, like Gecko) Chrome/87.0.4280.66 Safari/537.36" etag="BaKQUCcTsK52lj8spQqK" version="13.10.4" type="github">
  <diagram id="4fDwi8Mv-b37ukeaiDpb" name="Page-1">
    <mxGraphModel dx="1422" dy="801" grid="1" gridSize="10" guides="1" tooltips="1" connect="1" arrows="1" fold="1" page="1" pageScale="1" pageWidth="827" pageHeight="1169" math="0" shadow="0">
      <root>
        <mxCell id="0" />
        <mxCell id="1" parent="0" />
        <mxCell id="QyOjHJEFR3-LKdIdvHgZ-26" style="edgeStyle=orthogonalEdgeStyle;rounded=0;orthogonalLoop=1;jettySize=auto;html=1;entryX=0.5;entryY=0;entryDx=0;entryDy=0;" edge="1" parent="1" source="QyOjHJEFR3-LKdIdvHgZ-2" target="QyOjHJEFR3-LKdIdvHgZ-10">
          <mxGeometry relative="1" as="geometry" />
        </mxCell>
        <mxCell id="QyOjHJEFR3-LKdIdvHgZ-2" value="Show logo" style="rounded=1;whiteSpace=wrap;html=1;" vertex="1" parent="1">
          <mxGeometry x="340" y="300" width="120" height="40" as="geometry" />
        </mxCell>
        <mxCell id="QyOjHJEFR3-LKdIdvHgZ-8" style="edgeStyle=orthogonalEdgeStyle;rounded=0;orthogonalLoop=1;jettySize=auto;html=1;entryX=0.5;entryY=0;entryDx=0;entryDy=0;" edge="1" parent="1" source="QyOjHJEFR3-LKdIdvHgZ-4" target="QyOjHJEFR3-LKdIdvHgZ-7">
          <mxGeometry relative="1" as="geometry" />
        </mxCell>
        <mxCell id="QyOjHJEFR3-LKdIdvHgZ-90" style="edgeStyle=orthogonalEdgeStyle;rounded=0;orthogonalLoop=1;jettySize=auto;html=1;entryX=0.5;entryY=0;entryDx=0;entryDy=0;" edge="1" parent="1" source="QyOjHJEFR3-LKdIdvHgZ-4" target="QyOjHJEFR3-LKdIdvHgZ-89">
          <mxGeometry relative="1" as="geometry" />
        </mxCell>
        <mxCell id="QyOjHJEFR3-LKdIdvHgZ-4" value="Want &lt;br&gt;to play?" style="rhombus;whiteSpace=wrap;html=1;" vertex="1" parent="1">
          <mxGeometry x="360" y="120" width="80" height="80" as="geometry" />
        </mxCell>
        <mxCell id="QyOjHJEFR3-LKdIdvHgZ-6" value="Yes" style="text;html=1;align=center;verticalAlign=middle;resizable=0;points=[];autosize=1;" vertex="1" parent="1">
          <mxGeometry x="400" y="210" width="40" height="20" as="geometry" />
        </mxCell>
        <mxCell id="QyOjHJEFR3-LKdIdvHgZ-7" value="Exit" style="rounded=1;whiteSpace=wrap;html=1;" vertex="1" parent="1">
          <mxGeometry x="100" y="300" width="120" height="40" as="geometry" />
        </mxCell>
        <mxCell id="QyOjHJEFR3-LKdIdvHgZ-9" value="No" style="text;html=1;align=center;verticalAlign=middle;resizable=0;points=[];autosize=1;" vertex="1" parent="1">
          <mxGeometry x="160" y="140" width="30" height="20" as="geometry" />
        </mxCell>
        <mxCell id="QyOjHJEFR3-LKdIdvHgZ-27" style="edgeStyle=orthogonalEdgeStyle;rounded=0;orthogonalLoop=1;jettySize=auto;html=1;entryX=0.5;entryY=0;entryDx=0;entryDy=0;" edge="1" parent="1" source="QyOjHJEFR3-LKdIdvHgZ-10" target="QyOjHJEFR3-LKdIdvHgZ-11">
          <mxGeometry relative="1" as="geometry" />
        </mxCell>
        <mxCell id="QyOjHJEFR3-LKdIdvHgZ-10" value="Pick two cards for user&lt;br&gt;Pick two cards for the computer" style="rounded=1;whiteSpace=wrap;html=1;" vertex="1" parent="1">
          <mxGeometry x="302.5" y="370" width="195" height="60" as="geometry" />
        </mxCell>
        <mxCell id="QyOjHJEFR3-LKdIdvHgZ-28" style="edgeStyle=orthogonalEdgeStyle;rounded=0;orthogonalLoop=1;jettySize=auto;html=1;entryX=0.5;entryY=0;entryDx=0;entryDy=0;" edge="1" parent="1" source="QyOjHJEFR3-LKdIdvHgZ-11" target="QyOjHJEFR3-LKdIdvHgZ-13">
          <mxGeometry relative="1" as="geometry" />
        </mxCell>
        <mxCell id="QyOjHJEFR3-LKdIdvHgZ-11" value="Print the two user&#39;s card and its current score&lt;br&gt;Print computer&#39;s first card" style="rounded=1;whiteSpace=wrap;html=1;" vertex="1" parent="1">
          <mxGeometry x="267.5" y="460" width="265" height="40" as="geometry" />
        </mxCell>
        <mxCell id="QyOjHJEFR3-LKdIdvHgZ-37" style="edgeStyle=orthogonalEdgeStyle;rounded=0;orthogonalLoop=1;jettySize=auto;html=1;entryX=0.5;entryY=0;entryDx=0;entryDy=0;" edge="1" parent="1" source="QyOjHJEFR3-LKdIdvHgZ-12" target="QyOjHJEFR3-LKdIdvHgZ-20">
          <mxGeometry relative="1" as="geometry">
            <Array as="points">
              <mxPoint x="680" y="580" />
            </Array>
          </mxGeometry>
        </mxCell>
        <mxCell id="QyOjHJEFR3-LKdIdvHgZ-12" value="Pick one card for user" style="rounded=1;whiteSpace=wrap;html=1;" vertex="1" parent="1">
          <mxGeometry x="510" y="565" width="140" height="30" as="geometry" />
        </mxCell>
        <mxCell id="QyOjHJEFR3-LKdIdvHgZ-34" style="edgeStyle=orthogonalEdgeStyle;rounded=0;orthogonalLoop=1;jettySize=auto;html=1;entryX=0;entryY=0.5;entryDx=0;entryDy=0;" edge="1" parent="1" source="QyOjHJEFR3-LKdIdvHgZ-13" target="QyOjHJEFR3-LKdIdvHgZ-12">
          <mxGeometry relative="1" as="geometry" />
        </mxCell>
        <mxCell id="QyOjHJEFR3-LKdIdvHgZ-78" style="edgeStyle=orthogonalEdgeStyle;rounded=0;orthogonalLoop=1;jettySize=auto;html=1;entryX=0.5;entryY=0;entryDx=0;entryDy=0;" edge="1" parent="1" source="QyOjHJEFR3-LKdIdvHgZ-13" target="QyOjHJEFR3-LKdIdvHgZ-77">
          <mxGeometry relative="1" as="geometry">
            <mxPoint x="146" y="520" as="targetPoint" />
            <Array as="points">
              <mxPoint x="240" y="580" />
              <mxPoint x="240" y="410" />
              <mxPoint x="105" y="410" />
            </Array>
          </mxGeometry>
        </mxCell>
        <mxCell id="QyOjHJEFR3-LKdIdvHgZ-13" value="Want&lt;br&gt;another&lt;br&gt;card?" style="rhombus;whiteSpace=wrap;html=1;" vertex="1" parent="1">
          <mxGeometry x="360" y="540" width="80" height="80" as="geometry" />
        </mxCell>
        <mxCell id="QyOjHJEFR3-LKdIdvHgZ-39" style="edgeStyle=orthogonalEdgeStyle;rounded=0;orthogonalLoop=1;jettySize=auto;html=1;entryX=0.5;entryY=0;entryDx=0;entryDy=0;" edge="1" parent="1" source="QyOjHJEFR3-LKdIdvHgZ-20" target="QyOjHJEFR3-LKdIdvHgZ-38">
          <mxGeometry relative="1" as="geometry">
            <Array as="points">
              <mxPoint x="680" y="950" />
              <mxPoint x="680" y="950" />
            </Array>
          </mxGeometry>
        </mxCell>
        <mxCell id="QyOjHJEFR3-LKdIdvHgZ-50" style="edgeStyle=orthogonalEdgeStyle;rounded=0;orthogonalLoop=1;jettySize=auto;html=1;entryX=0.5;entryY=1;entryDx=0;entryDy=0;" edge="1" parent="1" source="QyOjHJEFR3-LKdIdvHgZ-20" target="QyOjHJEFR3-LKdIdvHgZ-13">
          <mxGeometry relative="1" as="geometry" />
        </mxCell>
        <mxCell id="QyOjHJEFR3-LKdIdvHgZ-20" value="User&#39;s&lt;br&gt;hand go&lt;br&gt;over&lt;br&gt;21?" style="rhombus;whiteSpace=wrap;html=1;" vertex="1" parent="1">
          <mxGeometry x="625.5" y="630" width="109" height="100" as="geometry" />
        </mxCell>
        <mxCell id="QyOjHJEFR3-LKdIdvHgZ-24" value="No" style="text;html=1;align=center;verticalAlign=middle;resizable=0;points=[];autosize=1;" vertex="1" parent="1">
          <mxGeometry x="310" y="554" width="30" height="20" as="geometry" />
        </mxCell>
        <mxCell id="QyOjHJEFR3-LKdIdvHgZ-30" style="edgeStyle=orthogonalEdgeStyle;rounded=0;orthogonalLoop=1;jettySize=auto;html=1;entryX=0.5;entryY=0;entryDx=0;entryDy=0;" edge="1" parent="1" source="QyOjHJEFR3-LKdIdvHgZ-29" target="QyOjHJEFR3-LKdIdvHgZ-4">
          <mxGeometry relative="1" as="geometry" />
        </mxCell>
        <mxCell id="QyOjHJEFR3-LKdIdvHgZ-29" value="Start" style="ellipse;whiteSpace=wrap;html=1;" vertex="1" parent="1">
          <mxGeometry x="349" y="60" width="102" height="40" as="geometry" />
        </mxCell>
        <mxCell id="QyOjHJEFR3-LKdIdvHgZ-23" value="yes&lt;br&gt;" style="text;html=1;align=center;verticalAlign=middle;resizable=0;points=[];autosize=1;" vertex="1" parent="1">
          <mxGeometry x="451" y="550" width="30" height="20" as="geometry" />
        </mxCell>
        <mxCell id="QyOjHJEFR3-LKdIdvHgZ-66" style="edgeStyle=orthogonalEdgeStyle;rounded=0;orthogonalLoop=1;jettySize=auto;html=1;" edge="1" parent="1" source="QyOjHJEFR3-LKdIdvHgZ-38">
          <mxGeometry relative="1" as="geometry">
            <mxPoint x="680" y="1080" as="targetPoint" />
          </mxGeometry>
        </mxCell>
        <mxCell id="QyOjHJEFR3-LKdIdvHgZ-38" value="User loses" style="rounded=1;whiteSpace=wrap;html=1;" vertex="1" parent="1">
          <mxGeometry x="635" y="980" width="90" height="40" as="geometry" />
        </mxCell>
        <mxCell id="QyOjHJEFR3-LKdIdvHgZ-40" value="yes" style="text;html=1;align=center;verticalAlign=middle;resizable=0;points=[];autosize=1;" vertex="1" parent="1">
          <mxGeometry x="684.5" y="850" width="30" height="20" as="geometry" />
        </mxCell>
        <mxCell id="QyOjHJEFR3-LKdIdvHgZ-42" value="No" style="text;html=1;align=center;verticalAlign=middle;resizable=0;points=[];autosize=1;" vertex="1" parent="1">
          <mxGeometry x="502.5" y="650" width="30" height="20" as="geometry" />
        </mxCell>
        <mxCell id="QyOjHJEFR3-LKdIdvHgZ-51" style="edgeStyle=orthogonalEdgeStyle;rounded=0;orthogonalLoop=1;jettySize=auto;html=1;entryX=0.5;entryY=0;entryDx=0;entryDy=0;" edge="1" parent="1" source="QyOjHJEFR3-LKdIdvHgZ-43" target="QyOjHJEFR3-LKdIdvHgZ-45">
          <mxGeometry relative="1" as="geometry">
            <Array as="points">
              <mxPoint x="360" y="655" />
              <mxPoint x="360" y="740" />
              <mxPoint x="525" y="740" />
            </Array>
          </mxGeometry>
        </mxCell>
        <mxCell id="QyOjHJEFR3-LKdIdvHgZ-114" style="edgeStyle=orthogonalEdgeStyle;rounded=0;orthogonalLoop=1;jettySize=auto;html=1;entryX=0.5;entryY=0;entryDx=0;entryDy=0;" edge="1" parent="1" source="QyOjHJEFR3-LKdIdvHgZ-43" target="QyOjHJEFR3-LKdIdvHgZ-53">
          <mxGeometry relative="1" as="geometry" />
        </mxCell>
        <mxCell id="QyOjHJEFR3-LKdIdvHgZ-43" value="Computer&#39;s&lt;br&gt;hand go&lt;br&gt;over 21?" style="rhombus;whiteSpace=wrap;html=1;" vertex="1" parent="1">
          <mxGeometry x="210" y="600" width="110" height="110" as="geometry" />
        </mxCell>
        <mxCell id="QyOjHJEFR3-LKdIdvHgZ-67" style="edgeStyle=orthogonalEdgeStyle;rounded=0;orthogonalLoop=1;jettySize=auto;html=1;" edge="1" parent="1" source="QyOjHJEFR3-LKdIdvHgZ-45">
          <mxGeometry relative="1" as="geometry">
            <mxPoint x="525" y="1080" as="targetPoint" />
          </mxGeometry>
        </mxCell>
        <mxCell id="QyOjHJEFR3-LKdIdvHgZ-45" value="User wins" style="rounded=1;whiteSpace=wrap;html=1;" vertex="1" parent="1">
          <mxGeometry x="480" y="980" width="90" height="40" as="geometry" />
        </mxCell>
        <mxCell id="QyOjHJEFR3-LKdIdvHgZ-47" value="yes" style="text;html=1;align=center;verticalAlign=middle;resizable=0;points=[];autosize=1;" vertex="1" parent="1">
          <mxGeometry x="335" y="630" width="30" height="20" as="geometry" />
        </mxCell>
        <mxCell id="QyOjHJEFR3-LKdIdvHgZ-57" style="edgeStyle=orthogonalEdgeStyle;rounded=0;orthogonalLoop=1;jettySize=auto;html=1;entryX=0.5;entryY=0;entryDx=0;entryDy=0;" edge="1" parent="1" source="QyOjHJEFR3-LKdIdvHgZ-53" target="QyOjHJEFR3-LKdIdvHgZ-56">
          <mxGeometry relative="1" as="geometry">
            <mxPoint x="280" y="890" as="targetPoint" />
            <Array as="points">
              <mxPoint x="370" y="820" />
            </Array>
          </mxGeometry>
        </mxCell>
        <mxCell id="QyOjHJEFR3-LKdIdvHgZ-108" style="edgeStyle=orthogonalEdgeStyle;rounded=0;orthogonalLoop=1;jettySize=auto;html=1;entryX=0.5;entryY=0;entryDx=0;entryDy=0;" edge="1" parent="1" source="QyOjHJEFR3-LKdIdvHgZ-53" target="QyOjHJEFR3-LKdIdvHgZ-107">
          <mxGeometry relative="1" as="geometry">
            <Array as="points">
              <mxPoint x="165" y="820" />
            </Array>
          </mxGeometry>
        </mxCell>
        <mxCell id="QyOjHJEFR3-LKdIdvHgZ-53" value="User&#39;s hand&lt;br&gt;&lt;b&gt;is greater&lt;br&gt;&lt;/b&gt;than computer&#39;s &lt;br&gt;hand?" style="rhombus;whiteSpace=wrap;html=1;" vertex="1" parent="1">
          <mxGeometry x="200" y="760" width="130" height="120" as="geometry" />
        </mxCell>
        <mxCell id="QyOjHJEFR3-LKdIdvHgZ-55" value="No" style="text;html=1;align=center;verticalAlign=middle;resizable=0;points=[];autosize=1;" vertex="1" parent="1">
          <mxGeometry x="237.5" y="720" width="30" height="20" as="geometry" />
        </mxCell>
        <mxCell id="QyOjHJEFR3-LKdIdvHgZ-63" style="edgeStyle=orthogonalEdgeStyle;rounded=0;orthogonalLoop=1;jettySize=auto;html=1;" edge="1" parent="1" source="QyOjHJEFR3-LKdIdvHgZ-56">
          <mxGeometry relative="1" as="geometry">
            <mxPoint x="370" y="1080" as="targetPoint" />
          </mxGeometry>
        </mxCell>
        <mxCell id="QyOjHJEFR3-LKdIdvHgZ-56" value="User wins" style="rounded=1;whiteSpace=wrap;html=1;" vertex="1" parent="1">
          <mxGeometry x="325" y="980" width="90" height="40" as="geometry" />
        </mxCell>
        <mxCell id="QyOjHJEFR3-LKdIdvHgZ-58" value="Yes" style="text;html=1;align=center;verticalAlign=middle;resizable=0;points=[];autosize=1;" vertex="1" parent="1">
          <mxGeometry x="330" y="790" width="40" height="20" as="geometry" />
        </mxCell>
        <mxCell id="QyOjHJEFR3-LKdIdvHgZ-62" style="edgeStyle=orthogonalEdgeStyle;rounded=0;orthogonalLoop=1;jettySize=auto;html=1;entryX=1;entryY=0.5;entryDx=0;entryDy=0;" edge="1" parent="1" source="QyOjHJEFR3-LKdIdvHgZ-59" target="QyOjHJEFR3-LKdIdvHgZ-4">
          <mxGeometry relative="1" as="geometry">
            <mxPoint x="280" y="220" as="targetPoint" />
            <Array as="points">
              <mxPoint x="95" y="1080" />
              <mxPoint x="800" y="1080" />
              <mxPoint x="800" y="160" />
            </Array>
          </mxGeometry>
        </mxCell>
        <mxCell id="QyOjHJEFR3-LKdIdvHgZ-68" style="edgeStyle=orthogonalEdgeStyle;rounded=0;orthogonalLoop=1;jettySize=auto;html=1;" edge="1" parent="1" source="QyOjHJEFR3-LKdIdvHgZ-59">
          <mxGeometry relative="1" as="geometry">
            <mxPoint x="95" y="1080" as="targetPoint" />
          </mxGeometry>
        </mxCell>
        <mxCell id="QyOjHJEFR3-LKdIdvHgZ-59" value="User loses" style="rounded=1;whiteSpace=wrap;html=1;" vertex="1" parent="1">
          <mxGeometry x="50" y="980" width="90" height="40" as="geometry" />
        </mxCell>
        <mxCell id="QyOjHJEFR3-LKdIdvHgZ-61" value="No" style="text;html=1;align=center;verticalAlign=middle;resizable=0;points=[];autosize=1;" vertex="1" parent="1">
          <mxGeometry x="165" y="790" width="30" height="20" as="geometry" />
        </mxCell>
        <mxCell id="QyOjHJEFR3-LKdIdvHgZ-71" value="" style="verticalLabelPosition=bottom;verticalAlign=top;html=1;shape=mxgraph.basic.smiley;fillColor=#FFFF00;" vertex="1" parent="1">
          <mxGeometry x="400" y="950" width="40" height="40" as="geometry" />
        </mxCell>
        <mxCell id="QyOjHJEFR3-LKdIdvHgZ-72" value="" style="verticalLabelPosition=bottom;verticalAlign=top;html=1;shape=mxgraph.basic.smiley;fillColor=#FFFF00;" vertex="1" parent="1">
          <mxGeometry x="555" y="950" width="40" height="40" as="geometry" />
        </mxCell>
        <mxCell id="QyOjHJEFR3-LKdIdvHgZ-73" value="" style="verticalLabelPosition=bottom;verticalAlign=top;html=1;shape=mxgraph.basic.no_symbol;fillColor=#FF3333;" vertex="1" parent="1">
          <mxGeometry x="710" y="960" width="40" height="40" as="geometry" />
        </mxCell>
        <mxCell id="QyOjHJEFR3-LKdIdvHgZ-75" value="" style="verticalLabelPosition=bottom;verticalAlign=top;html=1;shape=mxgraph.basic.no_symbol;fillColor=#FF3333;" vertex="1" parent="1">
          <mxGeometry x="126" y="960" width="40" height="40" as="geometry" />
        </mxCell>
        <mxCell id="QyOjHJEFR3-LKdIdvHgZ-82" style="edgeStyle=orthogonalEdgeStyle;rounded=0;orthogonalLoop=1;jettySize=auto;html=1;entryX=0;entryY=0.5;entryDx=0;entryDy=0;" edge="1" parent="1" source="QyOjHJEFR3-LKdIdvHgZ-76" target="QyOjHJEFR3-LKdIdvHgZ-77">
          <mxGeometry relative="1" as="geometry">
            <Array as="points">
              <mxPoint x="25" y="630" />
              <mxPoint x="25" y="501" />
            </Array>
          </mxGeometry>
        </mxCell>
        <mxCell id="QyOjHJEFR3-LKdIdvHgZ-76" value="Pick one card for computer" style="rounded=1;whiteSpace=wrap;html=1;fillColor=#FFFFFF;" vertex="1" parent="1">
          <mxGeometry x="45" y="610" width="120" height="40" as="geometry" />
        </mxCell>
        <mxCell id="QyOjHJEFR3-LKdIdvHgZ-81" style="edgeStyle=orthogonalEdgeStyle;rounded=0;orthogonalLoop=1;jettySize=auto;html=1;entryX=0.5;entryY=0;entryDx=0;entryDy=0;" edge="1" parent="1" source="QyOjHJEFR3-LKdIdvHgZ-77" target="QyOjHJEFR3-LKdIdvHgZ-76">
          <mxGeometry relative="1" as="geometry" />
        </mxCell>
        <mxCell id="QyOjHJEFR3-LKdIdvHgZ-83" style="edgeStyle=orthogonalEdgeStyle;rounded=0;orthogonalLoop=1;jettySize=auto;html=1;entryX=0;entryY=0.5;entryDx=0;entryDy=0;" edge="1" parent="1" source="QyOjHJEFR3-LKdIdvHgZ-77" target="QyOjHJEFR3-LKdIdvHgZ-43">
          <mxGeometry relative="1" as="geometry">
            <Array as="points">
              <mxPoint x="180" y="501" />
              <mxPoint x="180" y="655" />
            </Array>
          </mxGeometry>
        </mxCell>
        <mxCell id="QyOjHJEFR3-LKdIdvHgZ-77" value="Computer&#39;s&lt;br&gt;hand is 17 or greater?" style="rhombus;whiteSpace=wrap;html=1;fillColor=#FFFFFF;" vertex="1" parent="1">
          <mxGeometry x="50" y="442.5" width="110" height="117.5" as="geometry" />
        </mxCell>
        <mxCell id="QyOjHJEFR3-LKdIdvHgZ-80" value="No" style="text;html=1;align=center;verticalAlign=middle;resizable=0;points=[];autosize=1;" vertex="1" parent="1">
          <mxGeometry x="104" y="574" width="30" height="20" as="geometry" />
        </mxCell>
        <mxCell id="QyOjHJEFR3-LKdIdvHgZ-84" value="yes" style="text;html=1;align=center;verticalAlign=middle;resizable=0;points=[];autosize=1;" vertex="1" parent="1">
          <mxGeometry x="180" y="560" width="30" height="20" as="geometry" />
        </mxCell>
        <mxCell id="QyOjHJEFR3-LKdIdvHgZ-91" style="edgeStyle=orthogonalEdgeStyle;rounded=0;orthogonalLoop=1;jettySize=auto;html=1;entryX=0.5;entryY=0;entryDx=0;entryDy=0;" edge="1" parent="1" source="QyOjHJEFR3-LKdIdvHgZ-89" target="QyOjHJEFR3-LKdIdvHgZ-2">
          <mxGeometry relative="1" as="geometry" />
        </mxCell>
        <mxCell id="QyOjHJEFR3-LKdIdvHgZ-89" value="Clear screen" style="rounded=1;whiteSpace=wrap;html=1;fillColor=#FFFFFF;" vertex="1" parent="1">
          <mxGeometry x="355" y="240" width="90" height="30" as="geometry" />
        </mxCell>
        <mxCell id="QyOjHJEFR3-LKdIdvHgZ-94" value="Function calls" style="text;html=1;align=center;verticalAlign=middle;resizable=0;points=[];autosize=1;" vertex="1" parent="1">
          <mxGeometry x="545" y="340" width="90" height="20" as="geometry" />
        </mxCell>
        <mxCell id="QyOjHJEFR3-LKdIdvHgZ-96" value="Function call" style="text;html=1;align=center;verticalAlign=middle;resizable=0;points=[];autosize=1;" vertex="1" parent="1">
          <mxGeometry x="640" y="491.25" width="80" height="20" as="geometry" />
        </mxCell>
        <mxCell id="QyOjHJEFR3-LKdIdvHgZ-99" value="" style="edgeStyle=elbowEdgeStyle;elbow=vertical;endArrow=classic;html=1;" edge="1" parent="1">
          <mxGeometry width="50" height="50" relative="1" as="geometry">
            <mxPoint x="630" y="565" as="sourcePoint" />
            <mxPoint x="680" y="515" as="targetPoint" />
          </mxGeometry>
        </mxCell>
        <mxCell id="QyOjHJEFR3-LKdIdvHgZ-100" value="" style="edgeStyle=elbowEdgeStyle;elbow=horizontal;endArrow=classic;html=1;" edge="1" parent="1">
          <mxGeometry width="50" height="50" relative="1" as="geometry">
            <mxPoint x="497.5" y="400" as="sourcePoint" />
            <mxPoint x="547.5" y="350" as="targetPoint" />
          </mxGeometry>
        </mxCell>
        <mxCell id="QyOjHJEFR3-LKdIdvHgZ-102" value="" style="endArrow=classic;html=1;" edge="1" parent="1">
          <mxGeometry width="50" height="50" relative="1" as="geometry">
            <mxPoint x="104.5" y="650" as="sourcePoint" />
            <mxPoint x="105" y="680" as="targetPoint" />
          </mxGeometry>
        </mxCell>
        <mxCell id="QyOjHJEFR3-LKdIdvHgZ-103" value="Function call" style="text;html=1;align=center;verticalAlign=middle;resizable=0;points=[];autosize=1;" vertex="1" parent="1">
          <mxGeometry x="65" y="680" width="80" height="20" as="geometry" />
        </mxCell>
        <mxCell id="QyOjHJEFR3-LKdIdvHgZ-104" style="edgeStyle=orthogonalEdgeStyle;rounded=0;orthogonalLoop=1;jettySize=auto;html=1;" edge="1" parent="1" source="QyOjHJEFR3-LKdIdvHgZ-105">
          <mxGeometry relative="1" as="geometry">
            <mxPoint x="235" y="1080" as="targetPoint" />
          </mxGeometry>
        </mxCell>
        <mxCell id="QyOjHJEFR3-LKdIdvHgZ-105" value="Draw" style="rounded=1;whiteSpace=wrap;html=1;" vertex="1" parent="1">
          <mxGeometry x="190" y="980" width="90" height="40" as="geometry" />
        </mxCell>
        <mxCell id="QyOjHJEFR3-LKdIdvHgZ-109" style="edgeStyle=orthogonalEdgeStyle;rounded=0;orthogonalLoop=1;jettySize=auto;html=1;entryX=0.5;entryY=0;entryDx=0;entryDy=0;" edge="1" parent="1" source="QyOjHJEFR3-LKdIdvHgZ-107" target="QyOjHJEFR3-LKdIdvHgZ-105">
          <mxGeometry relative="1" as="geometry">
            <Array as="points">
              <mxPoint x="235" y="910" />
            </Array>
          </mxGeometry>
        </mxCell>
        <mxCell id="QyOjHJEFR3-LKdIdvHgZ-110" style="edgeStyle=orthogonalEdgeStyle;rounded=0;orthogonalLoop=1;jettySize=auto;html=1;entryX=0.5;entryY=0;entryDx=0;entryDy=0;" edge="1" parent="1" source="QyOjHJEFR3-LKdIdvHgZ-107" target="QyOjHJEFR3-LKdIdvHgZ-59">
          <mxGeometry relative="1" as="geometry">
            <Array as="points">
              <mxPoint x="95" y="910" />
            </Array>
          </mxGeometry>
        </mxCell>
        <mxCell id="QyOjHJEFR3-LKdIdvHgZ-107" value="&lt;b&gt;equals?&lt;/b&gt;" style="rhombus;whiteSpace=wrap;html=1;fillColor=#FFFFFF;" vertex="1" parent="1">
          <mxGeometry x="125" y="870" width="80" height="80" as="geometry" />
        </mxCell>
        <mxCell id="QyOjHJEFR3-LKdIdvHgZ-111" value="yes" style="text;html=1;align=center;verticalAlign=middle;resizable=0;points=[];autosize=1;" vertex="1" parent="1">
          <mxGeometry x="215" y="890" width="30" height="20" as="geometry" />
        </mxCell>
        <mxCell id="QyOjHJEFR3-LKdIdvHgZ-112" value="no" style="text;html=1;align=center;verticalAlign=middle;resizable=0;points=[];autosize=1;" vertex="1" parent="1">
          <mxGeometry x="85" y="890" width="30" height="20" as="geometry" />
        </mxCell>
        <mxCell id="QyOjHJEFR3-LKdIdvHgZ-113" value="" style="verticalLabelPosition=bottom;verticalAlign=top;html=1;shape=mxgraph.basic.tick;fillColor=#80FF00;" vertex="1" parent="1">
          <mxGeometry x="267.5" y="960" width="25" height="30" as="geometry" />
        </mxCell>
      </root>
    </mxGraphModel>
  </diagram>
</mxfile>
